<?xml version="1.0" encoding="UTF-8"?>
<svg width="20px" height="20px" viewBox="0 0 20 20" version="1.1" xmlns="http://www.w3.org/2000/svg" xmlns:xlink="http://www.w3.org/1999/xlink">
    <title>logo</title>
    <defs>
        <radialGradient cx="79.1305263%" cy="87.6448158%" fx="79.1305263%" fy="87.6448158%" r="96.9897763%" id="radialGradient-1">
            <stop stop-color="#2440E6" offset="0%"></stop>
            <stop stop-color="#5661B3" offset="100%"></stop>
        </radialGradient>
        <radialGradient cx="1.50610457e-05%" cy="30.2198941%" fx="1.50610457e-05%" fy="30.2198941%" r="62.2688773%" gradientTransform="translate(0.000000,0.302199),scale(1.000000,0.722519),rotate(61.734522),translate(-0.000000,-0.302199)" id="radialGradient-2">
            <stop stop-color="#6574CD" stop-opacity="0.5" offset="0%"></stop>
            <stop stop-color="#6574CD" offset="100%"></stop>
        </radialGradient>
    </defs>
    <g id="Page-1" stroke="none" stroke-width="1" fill="none" fill-rule="evenodd">
        <g id="logo">
            <rect id="Rectangle" x="0" y="0" width="20" height="20"></rect>
            <g id="Bitmap" transform="translate(2.531017, 0.049628)" fill-rule="nonzero">
                <g id="Group" transform="translate(7.468983, 9.967523) scale(-1, 1) rotate(-180.000000) translate(-7.468983, -9.967523) translate(0.000000, 0.000000)">
                    <circle id="Oval" fill="url(#radialGradient-1)" cx="7.46898264" cy="12.4660627" r="7.46898264"></circle>
                    <path d="M6.18858562,19.8511166 C4.6451613,19.5831266 3.34491318,18.9280397 2.2679901,17.8759305 C1.16129034,16.7940447 0.476426818,15.5334988 0.143920615,13.9602978 L0.029776694,13.4243176 L0.0148883566,6.71464019 L1.91600003e-08,-4.92939023e-16 L0.138957836,-4.92939023e-16 C0.218362302,-4.92939023e-16 0.47146404,0.0248138958 0.69975188,0.0496277916 C2.65012408,0.287841191 4.30769232,1.46898263 5.21091814,3.26054591 C5.43920598,3.71712159 5.60297768,4.24317617 5.7171216,4.89826303 C5.81141442,5.45409429 5.8163772,5.63771713 5.80148886,8.53598015 L5.78660052,11.5880893 L5.90570722,11.8858561 C6.06947892,12.292804 6.52109184,12.7444169 6.92803972,12.9081886 L7.22580648,13.0272953 L10.0049628,13.0322581 C11.5334988,13.0322581 12.8734492,13.0521092 12.9776675,13.0719603 C13.4640199,13.1662531 13.9851117,13.573201 14.1935484,14.0248139 C14.2531018,14.1488834 14.3325062,14.3920596 14.3672457,14.5558313 C14.4218362,14.8287841 14.4168735,14.9032258 14.337469,15.2109181 C14.08933,16.1240695 13.2158809,17.3895782 12.3225807,18.1290323 C11.3101737,18.9677419 10.1935484,19.528536 8.98759308,19.8114144 C8.35235734,19.955335 6.91315138,19.9801489 6.18858562,19.8511166 Z" id="Path" fill="url(#radialGradient-2)"></path>
                </g>
            </g>
        </g>
    </g>
</svg>